<?xml version="1.0" encoding="utf-8"?>
<!DOCTYPE svg PUBLIC "-//W3C//DTD SVG 1.1//EN" "http://www.w3.org/Graphics/SVG/1.1/DTD/svg11.dtd">
<svg x="0px" y="0px" width="100%" height="100%" viewBox="0, 0, 1000, 1000" preserveAspectRatio="xMidYMid" font-size="0" id="Layer_1" xml:space="preserve" enable-background="new 0 0 1000 1000" xmlns="http://www.w3.org/2000/svg" xmlns:xlink="http://www.w3.org/1999/xlink" xmlns:xml="http://www.w3.org/XML/1998/namespace" version="1.1">
  <style xml:space="preserve" type="text/css">
	.st0{fill:url(#SVGID_1_);}
	.st1{fill:#FFFFFF;}
</style>
  <g xml:space="preserve">
    <image x="none" y="none" width="2004" height="982" xlink:href="43D51169551F8D4B.jpeg" enable-background="new" transform="matrix(0.3223, 0, 0, 0.3213, 172.4931, 174.9836)" xml:space="preserve" overflow="visible" />
  </g>
  <g xml:space="preserve">
    <g xml:space="preserve">
      <g xml:space="preserve">
        <radialGradient cx="500" cy="502" r="498.6" fx="500" fy="502" gradientUnits="userSpaceOnUse" gradientTransform="matrix(1, 0, 0, -1, 0, 1002)" id="SVGID_1_" xml:space="preserve">
          <stop offset="76.18%" stop-color="#E42229" stop-opacity="1" xml:space="preserve" />
          <stop offset="80.16%" stop-color="#D92127" stop-opacity="1" xml:space="preserve" />
          <stop offset="85.88%" stop-color="#C32025" stop-opacity="1" xml:space="preserve" />
          <stop offset="92.62%" stop-color="#A21D20" stop-opacity="1" xml:space="preserve" />
          <stop offset="97.55%" stop-color="#86191A" stop-opacity="1" xml:space="preserve" />
        </radialGradient>
        <circle cx="500" cy="500" r="498.6" xml:space="preserve" class="st0" style="fill:url(#SVGID_1_);" />
        <g id="Claro" xml:space="preserve">
          <path d="M185.9 435.6 C211.1 435.6 233 450.7 243.2 472.7 L285.4 472.7 C273.5 427.9 233.5 394.9 185.9 394.9 C128.9 394.9 82.7 442.2 82.7 500.6 C82.7 559.0001 128.9 606.3 185.9 606.3 C233.5 606.3 273.5 573.4 285.4 528.6 L243.2 528.6 C233 550.5001 211.2 565.6 185.9 565.6 C150.9 565.6 122.4 536.5001 122.4 500.6 C122.4 464.8 150.9 435.6 185.9 435.6 z" xml:space="preserve" class="st1" style="fill:#FFFFFF;" />
          <path d="M718.3 435.5 C671.1 435.5 632.9 473.8 632.9 521 C632.9 568.2 671.1 606.5 718.3 606.5 C765.5 606.5 803.8 568.2 803.8 521 C803.8 473.8 765.5 435.5 718.3 435.5 z M718.3 566 C693.5 566 673.4 545.9 673.4 521.1 C673.4 496.2 693.4999 476.2 718.3 476.2 C743.1 476.2 763.3 496.3 763.3 521.1 C763.3 545.9 743.1 566 718.3 566 z" xml:space="preserve" class="st1" style="fill:#FFFFFF;" />
          <g xml:space="preserve">
            <polygon points="306.2,393.8 346.2,393.8 346.2,605.1 306.2,605.1" xml:space="preserve" class="st1" style="fill:#FFFFFF;" />
            <path d="M326.2 499.5" xml:space="preserve" class="st1" style="fill:#FFFFFF;" />
          </g>
          <path d="M487.7 446 C474.2 438.9 458.6 435.4 441.2 435.4 C414.4 435.4 395.4 442.6 384.5 457 C377.6 466.2 373.7 477.9 372.8 492.2 L413 492.2 C414 485.9 416 480.9 418.9 477.2 C423 472.2 430 469.7 439.8 469.7 C448.5 469.7 455.2 471 459.6 473.6 C464.2 476.1 466.5 480.7 466.5 487.3 C466.5 492.8 463.6 496.9 457.6 499.4 C454.2 500.9 448.7 502.2 441.1 503.1 L426.9 504.9 C410.8 507.1 400.3 510.5 392.1 515.4 C377 524.4 369.4 538.9 369.4 559 C369.4 574.5 374.1 585.4 383.5 593.9 C393 602.3 401.8 605.1 416.1 605.1 C449.4 605.1 468 588.5001 468 588.5001 C468.2 591.6 468 601.8 468 605.1 L507.5 605.1 L508 486.1 C508 466.4 501.3 453.1 487.7 446 z M466.3 539 C466 553.3 462.1 563.1 454.5 568.5 C447 573.9 438.8 576.6 429.7 576.6 C424.1 576.6 419.3 575 415.2 571.8 C411.3 568.5 409.4 563.2 409.4 556 C409.4 547.8 412.6 541.7 419 537.9 C422.8 535.6 429.1 533.6 437.9 532 L447.2 530.2 C451.9 529.3 455.6 528.4 458.2 527.3 C460.9 526.2 463.6 524.8 466.2 523.1 L466.3 539 L466.3 539 z" xml:space="preserve" class="st1" style="fill:#FFFFFF;" />
          <path d="M617.2 436.7 C613.2 437.3 607.8 438.6 601.9 441 C593.4 444.5 581.1 453.5 573.3 464.2 L573.3 443.4 L535.0001 442.8 L535.0001 605.2 L575.0001 605.2 L574.9001 527.9 C574.9001 514.9 576.5001 505.3 579.7001 499.1 C585.4001 488.2 599.2001 476.6 615.9001 476.6 L620.8001 476.7 L628.1001 477.2 L627.7001 436 C627.6 436.1 621.4 436.1 617.2 436.7 z" xml:space="preserve" class="st1" style="fill:#FFFFFF;" />
          <path d="M741.3 394.4 L741.5 291.4 L701.4 291.4 L701.3 394.3 C703.3 394.1 741.3 394.4 741.3 394.4 z" xml:space="preserve" class="st1" style="fill:#FFFFFF;" />
          <polygon points="880.3,314.9 786.3,409 814.8,438.5 909.1,344.3" xml:space="preserve" class="st1" style="fill:#FFFFFF;" />
          <path d="M945.9 478.2 L841.7 478.2 L841.7 519.2 L945.9 519.2 C945.7 517 945.9 478.2 945.9 478.2 z" xml:space="preserve" class="st1" style="fill:#FFFFFF;" />
        </g>
      </g>
    </g>
  </g>
</svg>