<?xml version="1.0" encoding="utf-8"?>
<!DOCTYPE svg PUBLIC "-//W3C//DTD SVG 1.1//EN" "http://www.w3.org/Graphics/SVG/1.1/DTD/svg11.dtd">
<svg x="0px" y="0px" width="100%" height="100%" viewBox="0, 0, 1000, 1000" preserveAspectRatio="xMidYMid" font-size="0" id="Layer_1" xml:space="preserve" enable-background="new 0 0 1000 1000" xmlns="http://www.w3.org/2000/svg" xmlns:xlink="http://www.w3.org/1999/xlink" xmlns:xml="http://www.w3.org/XML/1998/namespace" version="1.1">
  <style xml:space="preserve" type="text/css">
	.st0{fill:#FFFFFF;}
</style>
  <g id="Layer_x0020_1" xml:space="preserve">
    <g id="_76799096" xml:space="preserve">
      <path d="M337.4 438.9 L337.4 438.5 C337.4 438.4 337.4 438.4 337.4 438.3 L337.4 438.9 z M762.5 420.2 C753.5 413.5 742.4 405.4 738.6 400.9 C740.7 396.9 745.6 389.5 749.9 383.4 C771.4 351.9 811.6 293.4 811.6 209.5 C811.6 113.7 741.5 1.800034 544.1 1.800034 C450.6 1.800034 344.8 32.70004 253.6 86.50003 C171.8 134.9 118.9 191.2 118.9 230 C118.9 239.3 122.5 247.7 129.3 254.5 C154.9 280 226.2 279.4 308.8 279.4 C431.6 279.4 482.2 286.1 482.2 305.7 C482.2 329.4 337.5 387.7 337.5 438.5 C337.5 497.4 459 508.3 514 518.1 C565.8 527.4 571.1 555.5 571.1 574.7 C571.1 610.7 557.8 642.7 533.8 664.7 C511 685.4999 482.8 698.7 441.4 696.7999 C454.5 602.2 387.5 538.3999 290 538.3999 C179.8 538.3999 113.9 629.6999 113.9 717.8999 C113.8 857.1 242.3 998 488 998 C585.2 998 683.5 966 757.5 910.1 C818.9 863.8 892 779.7 892 641.5 C892 515.6 807.7 453.5 762.5 420.2 L762.5 420.2 z" id="_48208384" xml:space="preserve" class="st0" style="fill:#FFFFFF;" />
      <path d="M337.4 438.9 L337.4 438.5 C337.4 438.4 337.4 438.4 337.4 438.3 L337.4 438.9 z M762.5 420.2 C753.5 413.5 742.4 405.4 738.6 400.9 C740.7 396.9 745.6 389.5 749.9 383.4 C771.4 351.9 811.6 293.4 811.6 209.5 C811.6 113.7 741.5 1.800034 544.1 1.800034 C450.6 1.800034 344.8 32.70004 253.6 86.50003 C171.8 134.9 118.9 191.2 118.9 230 C118.9 239.3 122.5 247.7 129.3 254.5 C154.9 280 226.2 279.4 308.8 279.4 C431.6 279.4 482.2 286.1 482.2 305.7 C482.2 329.4 337.5 387.7 337.5 438.5 C337.5 497.4 459 508.3 514 518.1 C565.8 527.4 571.1 555.5 571.1 574.7 C571.1 610.7 557.8 642.7 533.8 664.7 C511 685.4999 482.8 698.7 441.4 696.7999 C454.5 602.2 387.5 538.3999 290 538.3999 C179.8 538.3999 113.9 629.6999 113.9 717.8999 C113.8 857.1 242.3 998 488 998 C585.2 998 683.5 966 757.5 910.1 C818.9 863.8 892 779.7 892 641.5 C892 515.6 807.7 453.5 762.5 420.2 L762.5 420.2 z M365.7 438.6 L365.5 438.6 C366 423.1 408.3 396.1 436.4 378.2 C477.7 351.8 510.2 331 510.2 305.7 C510.2 295.5 506.3 286.1 498.8 278.7 C470.8 250.8 392 251.1 308.7 251.4 C278.3 251.5 246.1 252.4 215.5 249.8 C246.8 239.4 284.7 219.1 326.7 196.7 C388.1 163.9 456.7 127.2 521 112.5 C503.9 129.5 492.7 150.1 492.7 166.9 C492.7 173.7 496.9 181 508.6 181 C518.9 181 531.1 177 545.3 172.3 C582.6 160.1 632.4 143.9 688.3 185 C669.1 184.9 653.4 190.2 644.5 197.2 C635.8 204 634 211.2 634 216 C634 223.7 639.8 230.3 647.9 239.4 C660.5 253.6 677.7 273 677.7 304 C677.7 329.7 666.9 356.3 651.3 375.3 C653.6 358.6 650.7 333.9 640.8 322.6 C636.1 317.3 630 314.5 623 314.5 C611.7 314.5 600.7 323.7 583.9 337.6 C572.1 347.3 557.5 359.5 539 371.5 C484 406.9 421.5 443.1 375.6 443.1 C372.9 442.9 365.7 442.2 365.7 438.6 L365.7 438.6 z M434.1 723.4 C482.7 726 522.4 712.9 552.6 685.4 C582.1 658.4 599 618.1 599 574.8 C599 550.2001 590.3 532.7001 571.2 517.4 C643.1 532.2 720.2 568.9 759.9 626.5 C739.3 619.3 726.4 617.4 713 617.4 C702.7 617.4 693.5 628.7 693.5 642.4 C693.5 649.4 696.3 657.9 699.8 668.6 C710.6 701.9 728 755.5001 682.9 823.1 C683.8 795.2 676.6 772.8 667.7 761.7 C661.4999 754 655.2 752.4 650.9999 752.4 C637.0999 752.4 629.7999 765.6 619.7 783.9 C601.4999 816.9 571.7 870.6 477.9 896.9 C491.3 876.4 495.9 854.4 491 842.6 C488.6 836.7 483.7 833.2 478 833.2 L477.6 833.2 C468.6 833.6 457.4 836.8 444.4 840.4 C402.1 852.3 339.8 869.6 275.3 817.8 C288.4 816.8 299.7 812.8 307.4 806.2001 C312.9 801.5001 316 795.6001 316 789.7001 C316 780.9001 308.7 774.0001 299.4 765.4001 C281 748.4001 256.8 725.8001 276.2 678.9001 C278.8 689.1001 283.4999 698.3001 290.0999 705.7001 C297.8999 714.4001 307.3 719.3 315.8999 719.3 C334.8999 719.3 334.8999 703.1 334.8999 692.4 C334.8999 678.3 347.6999 666 362.2999 666 C403.6999 666 419.3999 727.2 405.5999 760.4 C419.4 749.5 430.1 733.8 434.1 723.4 L434.1 723.4 z M740.7 887.7 C671.3 940 579.3 970 488 970 C260.8 970 141.9 843.2 141.9 718 C141.9 643.6 197.4 566 290.1 566 C344.8 566 430.1 592.9 419.4 699.4 C417.8 688.6 403.8 650.7 362.3 650.7 C339.2 650.7 319.7 669.7 319.7 692.2 C319.7 701.4 317.5999 703.9 315.8 703.9 C300.5 703.9 281.4 681.4 285.3 643.6 C225.7 710.0001 268.2 757.1 288.9 776.3 C293.5 780.6 300.6 787.1 300.7 789.5001 C300.7 796.0001 283.5999 806.7001 240.8 802.8 C315.4 891.7001 402.3 867.7001 448.3 854.7001 C459.8 851.5001 473.5 845.6001 477.0999 851.0001 C483.2 859.2001 466.8999 897.4001 444.9999 917.4001 C570.7 901.0001 611.8999 828.8001 632.7999 791.1001 C639.7999 778.4001 645.8999 767.4001 650.8999 767.4001 C663.9999 767.4001 675.6999 820.9001 666.7999 862.0001 C750.0999 784.4001 726.2 701.1001 713.9999 663.8 C710.9999 654.7001 708.4999 646.8 708.4999 642.2001 C708.4999 635.3 710.7 633.4001 715.4 632.2001 C736.2 632.2001 760.6 639.7001 789.4999 653.5001 C712.6 473.1 446 497.9 381.3 457.9 C430.3 455.3 492.5 419.3 547.2 384.1 C566.4999 371.6 581.6 359.2 593.6 349.1 C606.2 338.6 617.2 329.5 623 329.5 C639.2 329.5 641.5 377.1 633.1 406.3 C673.6 380.2 692.7 340.8 692.7 304 C692.7 267.3 672.4 244.5 659.1 229.4 C654.9 224.7 649.2 218.3 649 216.1 C649 214 650.6 211.6 653.6 209.4 C667.6 199.2 694.8 195.3 723.2 201.8 C660.7 121.5 582.9999 144.3 540.4 158.3 C527.4999 162.5 508.4 168.5 508.4 163.2 C508.4 148 528.4999 117 564.1 95.39998 C491.3 90.49998 391.4 145.1 319.4 183.6 C260.5 215.1 205.2 244.6 173.3 244.6 C153.6 244.6 146.8 237.5 146.8 230.2 C146.8 175.7 339.9 29.99998 544 29.99998 C621.3 29.99998 684.5 49.09998 726.7 85.19998 C763.3 116.5 783.5 160.7 783.5 209.7 C783.5 284.9 747.9 336.8 726.6 367.7 C715.7 383.6 709.7 392.4 709.7 401.7 C709.7 416.3 723.2999 426.3 745.7 442.8 C790 475.3 864 529.8 864 641.5 C864 768.1 796.9 845.2 740.7 887.7 L740.7 887.7 z" id="_76397856" xml:space="preserve" />
    </g>
  </g>
</svg>