<?xml version="1.0" encoding="UTF-8"?>
<svg width="200px" height="200px" viewBox="0 0 200 200" version="1.1" xmlns="http://www.w3.org/2000/svg" xmlns:xlink="http://www.w3.org/1999/xlink">
    <!-- Generator: Sketch 58 (84663) - https://sketch.com -->
    <title>Artboard</title>
    <desc>Created with Sketch.</desc>
    <g id="Artboard" stroke="none" stroke-width="1" fill="none" fill-rule="evenodd">
        <g id="wallet-utilities" transform="translate(10.000000, 0.000000)" fill-rule="nonzero">
            <g id="Layer_10" transform="translate(50.000000, 50.000000)" fill="#FFFFFF" stroke="#FFFFFF">
                <polyline id="Path" points="23.7463968 115.4635 21.0987106 85.7675 0.17908046 46.2695 1.89571214 19.198 23.7463968 0.5365 58.4427236 0.696 77.6457221 19.198 81.8209195 33.205 76.7728586 61.944 62.3124188 85.7675 53.9765717 111.215 23.7463968 115.4635 23.7463968 115.4635 55.8095852 115.4635 55.8095852 115.4635 55.8095852 115.4635"></polyline>
            </g>
            <g id="Layer_2" fill="#FD608F">
                <path d="M81.8564516,199.217391 C79.2290323,199.217391 77.1096774,197.086957 77.1096774,194.478261 C77.1096774,193.608696 77.3419355,192.782609 77.7629032,192.072464 C77.7774194,192.043478 77.7629032,192.014493 77.733871,192.014493 L74.3370968,192.014493 C71.4629032,192.014493 68.9806452,189.608696 69.2854839,186.768116 C69.416129,185.550725 70.0112903,184.478261 70.8822581,183.710145 C70.8967742,183.695652 70.8967742,183.666667 70.8822581,183.652174 C70.0112903,182.884058 69.416129,181.811594 69.2854839,180.594203 C68.9806452,177.73913 71.4629032,175.347826 74.3370968,175.347826 L105.677419,175.347826 C108.551613,175.347826 111.033871,177.753623 110.729032,180.594203 C110.598387,181.811594 110.003226,182.884058 109.132258,183.652174 C109.117742,183.666667 109.117742,183.695652 109.132258,183.710145 C110.003226,184.478261 110.598387,185.550725 110.729032,186.768116 C111.033871,189.623188 108.551613,192.014493 105.677419,192.014493 L102.280645,192.014493 C102.251613,192.014493 102.222581,192.043478 102.251613,192.072464 C102.716129,192.869565 102.962903,193.797101 102.890323,194.797101 C102.730645,197.333333 100.437097,199.217391 97.8822581,199.217391 L81.8564516,199.217391 L81.8564516,199.217391 Z M45.4064516,131.304348 C49.2387097,127.884058 53.1725806,131.797101 49.7467742,135.637681 L33.5177419,153.768116 C28.8870968,158.942029 22.05,152.115942 27.2322581,147.492754 L45.4064516,131.304348 L45.4064516,131.304348 Z M134.593548,131.304348 C130.76129,127.884058 126.827419,131.797101 130.253226,135.637681 L146.482258,153.768116 C151.112903,158.942029 157.95,152.115942 152.767742,147.492754 L134.593548,131.304348 L134.593548,131.304348 Z M150.372581,94.0144928 C145.233871,93.7246377 145.233871,88.1884058 150.372581,87.884058 L174.687097,86.5217391 C181.625806,86.1304348 181.625806,95.7826087 174.687097,95.3913043 L150.372581,94.0144928 L150.372581,94.0144928 Z M29.6274194,94.0144928 C34.766129,93.7246377 34.766129,88.1884058 29.6274194,87.884058 L5.31290323,86.5217391 C-1.62580645,86.1304348 -1.62580645,95.7971014 5.31290323,95.3913043 L29.6274194,94.0144928 L29.6274194,94.0144928 Z M44.8403226,50.3623188 C48.6725806,53.7826087 52.6064516,49.8695652 49.1806452,46.0289855 L32.9516129,27.884058 C28.3209677,22.7101449 21.483871,29.5362319 26.666129,34.1594203 L44.8403226,50.3623188 L44.8403226,50.3623188 Z M134.883871,49.9275362 C131.051613,53.3478261 127.117742,49.4347826 130.529032,45.5797101 L146.758065,27.4347826 C151.38871,22.2608696 158.225806,29.0869565 153.043548,33.7101449 L134.883871,49.9275362 L134.883871,49.9275362 Z M93.4693548,30.2608696 C93.1790323,35.3913043 87.633871,35.3913043 87.3290323,30.2608696 L85.95,5.98550725 C85.5580645,-0.942028986 95.2403226,-0.942028986 94.8483871,5.98550725 L93.4693548,30.2608696 L93.4693548,30.2608696 Z M83.9032258,160.869565 L80.5209677,103.217391 C80.5209677,103.202899 80.5064516,103.188406 80.4919355,103.173913 C73.2483871,101.115942 67.6887097,96.5652174 67.6887097,89.4927536 C67.6887097,85.9855072 69.5758065,83.6086957 72.0580645,82.4492754 C73.0596774,81.9855072 74.1774194,81.7246377 75.3096774,81.6956522 C76.4419355,81.6666667 77.5741935,81.8550725 78.6048387,82.2753623 C81.1451613,83.3043478 83.1774194,85.6521739 83.3951613,89.3913043 L84.033871,100.202899 C84.033871,100.217391 84.0483871,100.246377 84.0629032,100.246377 C85.9790323,100.594203 87.9822581,100.768116 90,100.768116 C92.0177419,100.768116 94.0209677,100.594203 95.9370968,100.246377 C95.9516129,100.246377 95.966129,100.231884 95.966129,100.202899 L96.6048387,89.3913043 C96.8225806,85.6521739 98.8548387,83.3043478 101.395161,82.2753623 C102.440323,81.8550725 103.572581,81.6666667 104.690323,81.6956522 C105.822581,81.7246377 106.940323,81.9855072 107.941935,82.4492754 C110.424194,83.6086957 112.31129,85.9855072 112.31129,89.4927536 C112.31129,96.5652174 106.751613,101.115942 99.5080645,103.173913 C99.4935484,103.173913 99.4790323,103.188406 99.4790323,103.217391 L96.0967742,160.826087 C96.0967742,160.855072 96.1112903,160.869565 96.1403226,160.869565 L100.625806,160.869565 C101.119355,160.869565 101.540323,160.492754 101.583871,159.985507 L101.729032,158.347826 C102.498387,149.565217 104.864516,141.782609 108.958065,133.985507 C112.282258,127.652174 116.462903,121.927536 120.077419,115.797101 C125.070968,107.318841 127.8,99.5362319 127.8,89.5652174 C127.8,79.5217391 123.837097,69.9855072 116.724194,62.884058 C93.0193548,39.2173913 52.2,56.0869565 52.2,89.5652174 C52.2,99.5362319 54.9145161,107.304348 59.9225806,115.797101 C63.5370968,121.927536 67.7177419,127.652174 71.0419355,133.985507 C75.1354839,141.768116 77.5016129,149.565217 78.2709677,158.347826 L78.416129,159.985507 C78.4596774,160.478261 78.8806452,160.869565 79.3741935,160.869565 L83.9032258,160.869565 L83.9032258,160.869565 Z M92.4096774,160.869565 L95.7483871,104.057971 C95.7483871,104.028986 95.733871,104.014493 95.7048387,104.014493 C93.8322581,104.304348 91.916129,104.463768 90,104.463768 C88.083871,104.463768 86.1677419,104.318841 84.2951613,104.014493 C84.266129,104.014493 84.2516129,104.028986 84.2516129,104.057971 L87.5758065,160.84058 C87.5758065,160.869565 87.5903226,160.884058 87.6193548,160.884058 L92.4096774,160.884058 L92.4096774,160.869565 Z M80.2887097,99.2753623 L79.7225806,89.5942029 C79.6064516,87.4927536 78.5467742,86.2173913 77.2258065,85.6811594 C76.6451613,85.4492754 76.0209677,85.3478261 75.4112903,85.3623188 C74.8016129,85.3768116 74.1774194,85.5217391 73.6112903,85.7826087 C72.3483871,86.3768116 71.3758065,87.6231884 71.3758065,89.4927536 C71.3758065,94.2608696 75.1645161,97.5362319 80.2887097,99.2753623 L80.2887097,99.2753623 Z M99.7112903,99.2753623 C104.835484,97.5217391 108.624194,94.2608696 108.624194,89.4927536 C108.624194,87.6376812 107.651613,86.3768116 106.38871,85.7826087 C105.822581,85.5217391 105.198387,85.3768116 104.58871,85.3623188 C103.979032,85.3478261 103.354839,85.4492754 102.774194,85.6811594 C101.453226,86.2173913 100.393548,87.4927536 100.277419,89.5942029 L99.7112903,99.2753623 L99.7112903,99.2753623 Z M105.996774,170.173913 L74.0467742,170.173913 C71.4048387,170.173913 69.2564516,168.043478 69.2564516,165.405797 C69.2419355,129.608696 42.8806452,124.318841 42.8806452,89.5652174 C42.8806452,47.7971014 93.7016129,26.7391304 123.314516,56.3043478 C131.835484,64.8115942 137.119355,76.5797101 137.119355,89.5652174 C137.119355,124.333333 110.758065,129.608696 110.758065,165.434783 C110.743548,168.057971 108.624194,170.173913 105.996774,170.173913 L105.996774,170.173913 Z" id="Shape"></path>
            </g>
        </g>
    </g>
</svg>